# xmcd
#
# Track frame offsets:
#	150
#	16404
#	34924
#	50400
#	63714
#	78720
#	95267
#	111505
#	127068
#	140684
#	156491
#	171462
#	188169
#	203802
#	227118
#	241644
#	257994
#	270992
#	294208
#	313115
#
# Disc length: 4372 seconds
#
# Revision: 0
# Processed by: cddbd v1.5.2PL0 Copyright (c) Steve Scherf et al.
# Submitted via: dBpowerAMP V4.0
#
DISCID=2c111214
DTITLE=João Bosco and Vinícius - Acústico pelo Brasil
DYEAR=2007
DGENRE=Country
TTITLE0=Querendo te Encontrar
TTITLE1=Meu ex-amor/ Deixa eu chorar
TTITLE2=Não dá pra Continuar
TTITLE3=Só fazendo amor
TTITLE4=Não é mais como antes
TTITLE5=Vou doar meu coração
TTITLE6=Coração idiota
TTITLE7=Sofrendo por amor
TTITLE8=O fora
TTITLE9=Vem me amar
TTITLE10=Parece castigo
TTITLE11=Mania de me enganar
TTITLE12=Quero um beijo
TTITLE13=Preciso amar de novo/ Desejos
TTITLE14=Ah é?
TTITLE15=Chora peito chora
TTITLE16=Tô falando, tá teimando
TTITLE17=Faz de conta que eu sou ele/ O amor me pegou
TTITLE18=Quero provar que te amo
TTITLE19=Falando sério
EXTD=Hugo
EXTT0=
EXTT1=
EXTT2=
EXTT3=
EXTT4=
EXTT5=
EXTT6=
EXTT7=
EXTT8=
EXTT9=
EXTT10=
EXTT11=
EXTT12=
EXTT13=
EXTT14=
EXTT15=
EXTT16=
EXTT17=
EXTT18=
EXTT19=
PLAYORDER=
